<?xml version="1.0" encoding="UTF-8" standalone="no" ?>
<!DOCTYPE svg PUBLIC "-//W3C//DTD SVG 1.1//EN" "http://www.w3.org/Graphics/SVG/1.1/DTD/svg11.dtd">
<svg xmlns="http://www.w3.org/2000/svg" xmlns:xlink="http://www.w3.org/1999/xlink" version="1.1" width="1080" height="1080" viewBox="0 0 1080 1080" xml:space="preserve">
<desc>Created with Fabric.js 5.2.4</desc>
<defs>
</defs>
<g transform="matrix(1 0 0 1 540 540)" id="b3cd3201-573b-4c36-b01b-6d26547f49d0"  >
<rect style="stroke: none; stroke-width: 1; stroke-dasharray: none; stroke-linecap: butt; stroke-dashoffset: 0; stroke-linejoin: miter; stroke-miterlimit: 4; fill: rgb(255,255,255); fill-rule: nonzero; opacity: 1; visibility: hidden;" vector-effect="non-scaling-stroke"  x="-540" y="-540" rx="0" ry="0" width="1080" height="1080" />
</g>
<g transform="matrix(1 0 0 1 540 540)" id="77a4a036-a996-4b32-9a17-c589ed37f083"  >
</g>
<g transform="matrix(1 0 0 1 877.04 484.5)"  >
<path style="stroke: none; stroke-width: 1; stroke-dasharray: none; stroke-linecap: butt; stroke-dashoffset: 0; stroke-linejoin: miter; stroke-miterlimit: 4; fill: rgb(255,184,184); fill-rule: nonzero; opacity: 1;" vector-effect="non-scaling-stroke"  transform=" translate(-937.04, -394.55)" d="M 916.66157 400.17675 Q 934.9235699999999 419.32923000000005 957.41039 406.28907000000004 C 951.11949 396.20745000000005 949.62167 385.24154000000004 951.29807 373.69001000000003 L 922.09474 373.69001000000003 C 923.3887 383.841 923.04068 393.29284 916.66157 400.17675 Z" stroke-linecap="round" />
</g>
<g transform="matrix(1 0 0 1 909.29 753.97)"  >
<polygon style="stroke: none; stroke-width: 1; stroke-dasharray: none; stroke-linecap: butt; stroke-dashoffset: 0; stroke-linejoin: miter; stroke-miterlimit: 4; fill: rgb(255,184,184); fill-rule: nonzero; opacity: 1;" vector-effect="non-scaling-stroke"  points="-4.41,70.29 11.21,62.14 18,-24.11 18,-69.61 -18,-70.29 -7.81,-24.79 -4.41,70.29 " />
</g>
<g transform="matrix(1 0 0 1 855.19 753.97)"  >
<polygon style="stroke: none; stroke-width: 1; stroke-dasharray: none; stroke-linecap: butt; stroke-dashoffset: 0; stroke-linejoin: miter; stroke-miterlimit: 4; fill: rgb(255,184,184); fill-rule: nonzero; opacity: 1;" vector-effect="non-scaling-stroke"  points="4.41,70.29 -11.21,62.14 -18,-24.11 -18,-69.61 18,-70.29 7.81,-24.79 4.41,70.29 " />
</g>
<g transform="matrix(1 0 0 1 879.85 663.99)"  >
<path style="stroke: none; stroke-width: 1; stroke-dasharray: none; stroke-linecap: butt; stroke-dashoffset: 0; stroke-linejoin: miter; stroke-miterlimit: 4; fill: rgb(47,46,65); fill-rule: nonzero; opacity: 1;" vector-effect="non-scaling-stroke"  transform=" translate(-939.85, -574.04)" d="M 895.608 603.92088 L 933.64023 600.52514 L 939.75256 565.88864 L 947.2231800000001 599.846 L 988.6511800000001 597.12941 C 989.5562400000001 580.62753 987.25732 563.64357 981.8597100000001 546.19341 L 890.854 544.15593 Z" stroke-linecap="round" />
</g>
<g transform="matrix(1 0 0 1 778.01 535.76)"  >
<path style="stroke: none; stroke-width: 1; stroke-dasharray: none; stroke-linecap: butt; stroke-dashoffset: 0; stroke-linejoin: miter; stroke-miterlimit: 4; fill: rgb(255,184,184); fill-rule: nonzero; opacity: 1;" vector-effect="non-scaling-stroke"  transform=" translate(-838.01, -445.81)" d="M 856.07793 473.84185 L 810.3293500000001 438.61368000000004 C 809.854516914578 438.24803648387183 809.3324622801643 437.94821835452547 808.7773500000001 437.72236000000004 L 802.1278800000001 435.01696000000004 C 796.7871700000002 432.84404000000006 786.6144700000001 425.61673 791.5758000000001 418.17474000000004 C 795.5758000000001 412.17474000000004 810.88701 422.92321000000004 812.7705800000001 426.90524000000005 C 813.3659624566433 428.1583121310256 814.3422737884758 429.191070005608 815.5599400000001 429.85587000000004 L 824.8569400000001 434.95048 C 825.0830400882403 435.07437834413815 825.3161497746135 435.1850315706139 825.5550900000002 435.28188 L 860.9512700000001 449.62875 C 862.9419683212426 450.43562858260526 865.1997438500753 450.2318737026728 867.0138200000001 449.08163 L 873.4310900000002 445.01263 C 875.2848042864507 443.8372568320915 877.598916911389 443.6516856049939 879.6162469389607 444.51663548763906 C 881.6335769665322 445.38158537028426 883.0945636228357 447.18576715473074 883.5211700000002 449.33885 L 885.6420800000002 460.04307 C 886.2726017536565 463.22529947312535 884.5163437706884 466.39839223949735 881.4849900000002 467.55383 L 862.5075200000001 474.78737 C 860.3456903397752 475.61141899839447 857.9110008865003 475.25337943881755 856.07793 473.84185 Z" stroke-linecap="round" />
</g>
<g transform="matrix(1 0 0 1 824.58 526.98)"  >
<path style="stroke: none; stroke-width: 1; stroke-dasharray: none; stroke-linecap: butt; stroke-dashoffset: 0; stroke-linejoin: miter; stroke-miterlimit: 4; fill: rgb(190,90,56); fill-rule: nonzero; opacity: 1;" vector-effect="non-scaling-stroke"  transform=" translate(-884.58, -437.03)" d="M 864.57577 448.17474 C 877.2421300000001 444.77823 875.91227 462.47373999999996 885.57577 471.17474 L 904.57577 456.17474 L 893.5705700000001 402.89333999999997 L 893.5705700000001 402.89333999999997 C 887.584279852346 404.60370720531864 882.7508280997407 409.02968423519513 880.5212200000001 414.84259 Z" stroke-linecap="round" />
</g>
<g transform="matrix(1 0 0 1 876.02 561.77)"  >
<path style="stroke: none; stroke-width: 1; stroke-dasharray: none; stroke-linecap: butt; stroke-dashoffset: 0; stroke-linejoin: miter; stroke-miterlimit: 4; fill: rgb(190,90,56); fill-rule: nonzero; opacity: 1;" vector-effect="non-scaling-stroke"  transform=" translate(-936.02, -471.83)" d="M 888.13739 547.55167 L 983.89713 547.55167 C 968.3993399999999 505.78818999999993 969.9081299999999 462.83471999999995 983.1039 419.06345999999996 C 983.560964053678 417.56439951556337 982.8876631521862 415.9521292075647 981.50023 415.22335 L 954.01466 400.8559 C 943.22532 407.87633 931.6295 405.7189 919.3781600000001 396.1019 L 889.4956800000001 404.25166 C 897.63053 453.10851 897.86158 500.962 888.13739 547.55167 Z" stroke-linecap="round" />
</g>
<g transform="matrix(1 0 0 1 832.24 826.43)"  >
<path style="stroke: none; stroke-width: 1; stroke-dasharray: none; stroke-linecap: butt; stroke-dashoffset: 0; stroke-linejoin: miter; stroke-miterlimit: 4; fill: rgb(47,46,65); fill-rule: nonzero; opacity: 1;" vector-effect="non-scaling-stroke"  transform=" translate(-892.24, -736.48)" d="M 912.082 750.26821 L 872.17511 751.95981 C 868.5764032930907 752.1123537776889 865.4422231500288 749.5257844606062 864.90929 745.96349 L 864.90929 745.96349 C 864.3706613920228 742.3631601110116 866.6637767962701 738.9453834368512 870.1995000000001 738.0786899999999 L 876.96828 736.4195 L 903.5721100000001 720.9993999999999 C 907.51349 725.0808 912.94087 728.5318199999999 919.57577 731.4706399999999 L 919.6534 742.3122699999999 C 919.6838751792257 746.570457124669 916.3364755737695 750.0878661133677 912.082 750.26821 Z" stroke-linecap="round" />
</g>
<g transform="matrix(1 0 0 1 931.91 825.82)"  >
<path style="stroke: none; stroke-width: 1; stroke-dasharray: none; stroke-linecap: butt; stroke-dashoffset: 0; stroke-linejoin: miter; stroke-miterlimit: 4; fill: rgb(47,46,65); fill-rule: nonzero; opacity: 1;" vector-effect="non-scaling-stroke"  transform=" translate(-991.91, -735.88)" d="M 972.06954 749.66222 L 1011.97642 751.35382 C 1015.5751267069093 751.506363777689 1018.7093068499712 748.9197944606063 1019.2422399999999 745.3575000000001 L 1019.2422399999999 745.3575000000001 C 1019.7808686079771 741.7571701110116 1017.4877532037299 738.3393934368513 1013.9520299999999 737.4727 L 1007.1832499999999 735.8135100000001 L 980.5794099999999 720.39341 C 976.6380399999999 724.47481 971.21066 727.92583 964.57576 730.86465 L 964.49813 741.70628 C 964.4676498080025 745.9644729044514 967.8150581675108 749.4818864461492 972.06954 749.66222 Z" stroke-linecap="round" />
</g>
<g transform="matrix(1 0 0 1 873.64 454.13)"  >
<circle style="stroke: none; stroke-width: 1; stroke-dasharray: none; stroke-linecap: butt; stroke-dashoffset: 0; stroke-linejoin: miter; stroke-miterlimit: 4; fill: rgb(255,184,184); fill-rule: nonzero; opacity: 1;" vector-effect="non-scaling-stroke"  cx="0" cy="0" r="21.73271" />
</g>
<g transform="matrix(1 0 0 1 916.03 605.79)"  >
<path style="stroke: none; stroke-width: 1; stroke-dasharray: none; stroke-linecap: butt; stroke-dashoffset: 0; stroke-linejoin: miter; stroke-miterlimit: 4; fill: rgb(255,184,184); fill-rule: nonzero; opacity: 1;" vector-effect="non-scaling-stroke"  transform=" translate(-976.03, -515.84)" d="M 967.5976 540.7602 L 960.4178 554.7209200000001 C 959.1362657363396 557.2127913576495 958.9805842928984 560.1335166720548 959.9899646899169 562.7474991023944 C 960.9993450869355 565.3614815327339 963.0775846189525 567.419585884219 965.70127 568.4034700000001 L 965.70127 568.4034700000001 C 968.4819458764205 569.4462185204613 971.5851837093077 569.1742434584545 974.1420828361295 567.663697311563 C 976.6989819629514 566.1531511646717 978.4347113183463 563.5663966176309 978.86327 560.6277200000001 L 981.8596600000001 540.08104 L 992.726 488.46587 L 992.04686 462.65828 L 970.31419 462.65828 C 977.727 481.85325 974.04966 510.16612 967.5976 540.7602 Z" stroke-linecap="round" />
</g>
<g transform="matrix(1 0 0 1 921.52 529.18)"  >
<path style="stroke: none; stroke-width: 1; stroke-dasharray: none; stroke-linecap: butt; stroke-dashoffset: 0; stroke-linejoin: miter; stroke-miterlimit: 4; fill: rgb(190,90,56); fill-rule: nonzero; opacity: 1;" vector-effect="non-scaling-stroke"  transform=" translate(-981.52, -439.23)" d="M 966.91845 465.37487 L 996.1217800000001 465.37487 L 991.8828800000001 433.34766 C 990.7148235539983 424.52233089039066 985.1510088701875 416.8914963677435 977.1056700000001 413.08055 L 977.1056700000001 413.08055 Z" stroke-linecap="round" />
</g>
<g transform="matrix(1 0 0 1 870.87 440.63)"  >
<path style="stroke: none; stroke-width: 1; stroke-dasharray: none; stroke-linecap: butt; stroke-dashoffset: 0; stroke-linejoin: miter; stroke-miterlimit: 4; fill: rgb(47,46,65); fill-rule: nonzero; opacity: 1;" vector-effect="non-scaling-stroke"  transform=" translate(-930.87, -350.68)" d="M 956.74513 352.21127 C 957.6232833936783 346.3397782846806 955.9623746426238 340.37192543991915 952.17724 335.79827 C 948.46943 331.41057 942.25424 327.81927 931.94291 329.51345 C 909.44559 333.20993 902.95819 351.93872999999996 905.16228 356.64876 C 907.3663700000001 361.35879 914.12228 372.27716999999996 914.12228 372.27716999999996 C 914.12228 372.27716999999996 909.1639700000001 361.46906999999993 914.5453500000001 359.26908 C 919.9267300000001 357.06909 940.7525500000002 348.40238 948.0213500000001 352.30672999999996 C 952.2101927765269 354.40994083055887 954.9464051852962 358.60114451442246 955.1866400000001 363.28218999999996 Z" stroke-linecap="round" />
</g>
<g transform="matrix(1 0 0 1 328.07 435.51)"  >
<path style="stroke: none; stroke-width: 1; stroke-dasharray: none; stroke-linecap: butt; stroke-dashoffset: 0; stroke-linejoin: miter; stroke-miterlimit: 4; fill: rgb(230,230,230); fill-rule: nonzero; opacity: 1;" vector-effect="non-scaling-stroke"  transform=" translate(-388.07, -345.56)" d="M 584.77342 261.76361 L 576.03557 266.19728000000003 C 565.9709004225856 246.3796805019337 552.6372931997547 228.40063793705244 536.59527 213.01596000000006 C 457.81372000000005 137.27805000000004 332.1032 139.75422000000003 256.36527 218.53576000000004 C 180.62734 297.31730000000005 183.10353 423.02783000000005 261.88508 498.76576000000006 C 276.87937087748446 513.2096496983759 294.05725657116983 525.199077483933 312.78599999999994 534.29242 L 308.5117 543.1089 C 226.99050381294816 503.5255405527165 180.48176532528234 415.71511083949974 193.5401075244336 326.03775878274854 C 206.59844972358488 236.36040672599734 276.2178303830432 165.45994016387027 365.642196763068 150.7687703523228 C 455.0665631430928 136.07760054077534 543.7103449379276 180.97764810470977 584.7734199999999 261.76360999999986 Z" stroke-linecap="round" />
</g>
<g transform="matrix(1 0 0 1 275.82 586.93)"  >
<path style="stroke: none; stroke-width: 1; stroke-dasharray: none; stroke-linecap: butt; stroke-dashoffset: 0; stroke-linejoin: miter; stroke-miterlimit: 4; fill: rgb(230,230,230); fill-rule: nonzero; opacity: 1;" vector-effect="non-scaling-stroke"  transform=" translate(-335.82, -496.98)" d="M 289.15621 444.05075 C 262.39242198760604 471.89006837990945 263.26431162009055 516.1546319876061 291.10363 542.91842 C 318.94294837990947 569.682208012394 363.20751198760604 568.8103183799094 389.9713 540.971 L 402.00916 528.44938 L 301.19407 431.52913 Z" stroke-linecap="round" />
</g>
<g transform="matrix(1 0 0 1 291.91 569.62)"  >
<path style="stroke: none; stroke-width: 1; stroke-dasharray: none; stroke-linecap: butt; stroke-dashoffset: 0; stroke-linejoin: miter; stroke-miterlimit: 4; fill: rgb(83,84,97); fill-rule: nonzero; opacity: 1;" vector-effect="non-scaling-stroke"  transform=" translate(-351.91, -479.67)" d="M 294.43926 424.41747 C 288.4826945433981 430.6275511117488 288.67690581148486 440.48733161329676 294.8734 446.45803 L 387.34074 535.35303 C 393.54695703351103 541.3194781322195 403.41485186778044 541.1251070335111 409.3813 534.91889 C 415.3477481322195 528.712672966489 415.15337703351105 518.8447781322195 408.94716 512.87833 L 316.47982 423.98333 C 310.2697367219517 418.02677008853374 300.4099607696863 418.2209812670118 294.43926 424.41747 Z" stroke-linecap="round" />
</g>
<g transform="matrix(1 0 0 1 477.14 376.36)"  >
<path style="stroke: none; stroke-width: 1; stroke-dasharray: none; stroke-linecap: butt; stroke-dashoffset: 0; stroke-linejoin: miter; stroke-miterlimit: 4; fill: rgb(230,230,230); fill-rule: nonzero; opacity: 1;" vector-effect="non-scaling-stroke"  transform=" translate(-537.14, -286.41)" d="M 571.77387 351.86241 L 583.81173 339.34079 C 610.5755097281227 311.50147162009057 609.7036133799095 267.23691472812277 581.864295 240.47313500000004 C 554.0249766200906 213.7093552718773 509.76041972812277 214.58125162009057 482.99664 242.42057000000003 L 470.95878 254.94219000000004 Z" stroke-linecap="round" />
</g>
<g transform="matrix(1 0 0 1 461.06 393.67)"  >
<path style="stroke: none; stroke-width: 1; stroke-dasharray: none; stroke-linecap: butt; stroke-dashoffset: 0; stroke-linejoin: miter; stroke-miterlimit: 4; fill: rgb(83,84,97); fill-rule: nonzero; opacity: 1;" vector-effect="non-scaling-stroke"  transform=" translate(-521.06, -303.72)" d="M 463.58664 248.47267 C 457.6300800885337 254.68275327804832 457.82429126701174 264.54252923031373 464.02078 270.51323 L 556.48813 359.40823 C 562.6954608311261 365.36732799435157 572.5572980652275 365.1695950176638 578.5207724223479 358.966468503937 C 584.4842467794683 352.76334199021017 584.2934691108553 342.9013677536215 578.0945499999999 336.93352 L 485.6271999999999 248.03852 C 479.4171161614763 242.08195722935534 469.5573355965047 242.27617297216233 463.58664 248.47267 Z" stroke-linecap="round" />
</g>
<g transform="matrix(1 0 0 1 471.15 536.3)"  >
<path style="stroke: none; stroke-width: 1; stroke-dasharray: none; stroke-linecap: butt; stroke-dashoffset: 0; stroke-linejoin: miter; stroke-miterlimit: 4; fill: rgb(83,84,97); fill-rule: nonzero; opacity: 1;" vector-effect="non-scaling-stroke"  transform=" translate(-531.16, -446.36)" d="M 502.59309 453.90711 L 502.59309 446.68448 C 502.59309 446.68448 534.11009 428.95619 559.71757 446.68448 L 559.71757 453.25048 Z" stroke-linecap="round" />
</g>
<g transform="matrix(1 0 0 1 758.09 536.3)"  >
<path style="stroke: none; stroke-width: 1; stroke-dasharray: none; stroke-linecap: butt; stroke-dashoffset: 0; stroke-linejoin: miter; stroke-miterlimit: 4; fill: rgb(83,84,97); fill-rule: nonzero; opacity: 1;" vector-effect="non-scaling-stroke"  transform=" translate(-818.09, -446.36)" d="M 789.52872 453.90711 L 789.52872 446.68448 C 789.52872 446.68448 821.04567 428.95619 846.6532 446.68448 L 846.6532 453.25048 Z" stroke-linecap="round" />
</g>
<g transform="matrix(1 0 0 1 614.71 687.99)"  >
<path style="stroke: none; stroke-width: 1; stroke-dasharray: none; stroke-linecap: butt; stroke-dashoffset: 0; stroke-linejoin: miter; stroke-miterlimit: 4; fill: rgb(230,230,230); fill-rule: nonzero; opacity: 1;" vector-effect="non-scaling-stroke"  transform=" translate(-674.71, -598.04)" d="M 597.144 453.25051 L 566.2836 453.25051 C 566.2836 453.25051 558.40436 444.05807000000004 532.14024 444.71467 C 505.8761199999999 445.37127 500.62323999999995 453.25051 500.62323999999995 453.25051 C 500.62323999999995 453.25051 474.68740999999994 470.65051 468.77797999999996 492.3184 C 468.77797999999996 492.3184 436.93272999999994 587.85417 436.27612999999997 662.70694 C 435.61953 737.5597100000001 464.51005999999995 748.06536 479.61193999999995 750.03517 C 494.71381999999994 752.0049799999999 521.6345399999999 749.37856 547.8986699999999 683.06164 L 559.061 644.32205 C 559.061 644.32205 561.0308100000001 621.34094 584.6685200000001 635.78621 C 608.30623 650.2314799999999 629.3175200000001 627.90697 629.3175200000001 627.90697 L 717.95896 627.90697 C 717.95896 627.90697 747.5061000000001 646.29186 774.42683 631.84659 C 774.42683 631.84659 784.9324799999999 618.05792 794.78153 664.67675 C 794.78153 664.67675 824.98528 760.5408199999999 871.60411 750.69175 C 918.22294 740.84268 912.97011 660.7371099999999 912.97011 660.7371099999999 C 912.97011 660.7371099999999 906.7323799999999 538.2806099999999 881.12486 494.94479999999993 C 881.12486 494.94479999999993 856.50224 449.96746999999993 840.08716 447.9976699999999 C 840.08716 447.9976699999999 804.63058 441.43166999999994 790.8419100000001 447.3410599999999 L 782.9626800000001 453.9070599999999 Z" stroke-linecap="round" />
</g>
<g transform="matrix(1 0 0 1 465.57 607.55)"  >
<circle style="stroke: none; stroke-width: 1; stroke-dasharray: none; stroke-linecap: butt; stroke-dashoffset: 0; stroke-linejoin: miter; stroke-miterlimit: 4; fill: rgb(83,84,97); fill-rule: nonzero; opacity: 1;" vector-effect="non-scaling-stroke"  cx="0" cy="0" r="57.12448" />
</g>
<g transform="matrix(1 0 0 1 763.67 607.55)"  >
<circle style="stroke: none; stroke-width: 1; stroke-dasharray: none; stroke-linecap: butt; stroke-dashoffset: 0; stroke-linejoin: miter; stroke-miterlimit: 4; fill: rgb(83,84,97); fill-rule: nonzero; opacity: 1;" vector-effect="non-scaling-stroke"  cx="0" cy="0" r="57.12448" />
</g>
<g transform="matrix(1 0 0 1 465.58 586.27)"  >
<path style="stroke: none; stroke-width: 1; stroke-dasharray: none; stroke-linecap: butt; stroke-dashoffset: 0; stroke-linejoin: miter; stroke-miterlimit: 4; fill: rgb(230,230,230); fill-rule: nonzero; opacity: 1;" vector-effect="non-scaling-stroke"  transform=" translate(-525.58, -496.32)" d="M 535.52831 504.85953 L 527.9117100000001 511.59628 C 526.5772865140736 512.7710715366255 524.5776934859265 512.7710715366255 523.24327 511.59628 L 515.6135400000001 504.85953 C 514.8588239373383 504.19458310056103 514.4240229289163 503.23896325409254 514.41854 502.23312 L 514.41854 483.6972 C 514.4221527130404 481.74879273796154 516.0026593886553 480.1712076818635 517.95107 480.1712 L 533.2170699999999 480.1712 C 535.1643962211923 480.16759021410843 536.7459527931609 481.74326384853487 536.7495999999999 483.69059 L 536.7495999999999 502.22 C 536.7412379560469 503.23458032465413 536.2962180813295 504.1963857188791 535.52831 504.85953 Z" stroke-linecap="round" />
</g>
<g transform="matrix(1 0 0 1 465.58 628.81)"  >
<path style="stroke: none; stroke-width: 1; stroke-dasharray: none; stroke-linecap: butt; stroke-dashoffset: 0; stroke-linejoin: miter; stroke-miterlimit: 4; fill: rgb(230,230,230); fill-rule: nonzero; opacity: 1;" vector-effect="non-scaling-stroke"  transform=" translate(-525.58, -538.86)" d="M 535.52831 530.32917 L 527.9117100000001 523.59899 C 526.5772814966647 522.4242117557217 524.5776985033355 522.4242117557217 523.24327 523.59899 L 515.6135400000001 530.33575 C 514.8588239373383 531.0006968994389 514.4240229289163 531.9563167459073 514.41854 532.9621599999999 L 514.41854 551.4783799999999 C 514.4149302109824 553.42570232328 515.9905977567794 555.0072572777191 517.93792 555.0109099999999 L 533.21709 555.0109099999999 C 535.1644162211924 555.0145197858914 536.745972793161 553.4388461514649 536.7496199999999 551.4915199999998 L 536.7496199999999 532.96873 C 536.7412524299277 531.9541380460948 536.2962259005681 530.9923230885194 535.52831 530.32917 Z" stroke-linecap="round" />
</g>
<g transform="matrix(1 0 0 1 444.32 607.55)"  >
<path style="stroke: none; stroke-width: 1; stroke-dasharray: none; stroke-linecap: butt; stroke-dashoffset: 0; stroke-linejoin: miter; stroke-miterlimit: 4; fill: rgb(230,230,230); fill-rule: nonzero; opacity: 1;" vector-effect="non-scaling-stroke"  transform=" translate(-504.32, -517.61)" d="M 512.84268 527.56486 L 519.57943 519.93513 C 520.7542215366256 518.6007065140735 520.7542215366256 516.6011134859264 519.57943 515.2666899999999 L 512.84268 507.6369699999999 C 512.1772241785226 506.8829352387271 511.22192397904706 506.4482813226081 510.21626 506.4419699999999 L 491.70005 506.4419699999999 C 489.7516427379615 506.4455827130403 488.1740576818635 508.0260893886552 488.17404999999997 509.9744999999999 L 488.17404999999997 525.2404999999999 C 488.17044021098246 527.18782232328 489.74610775677934 528.7693772777191 491.69343 528.7730299999998 L 510.2228 528.7730299999998 C 511.22842885990735 528.7623561353812 512.1816453138744 528.3227758785797 512.84268 527.56486 Z" stroke-linecap="round" />
</g>
<g transform="matrix(1 0 0 1 486.85 607.55)"  >
<path style="stroke: none; stroke-width: 1; stroke-dasharray: none; stroke-linecap: butt; stroke-dashoffset: 0; stroke-linejoin: miter; stroke-miterlimit: 4; fill: rgb(230,230,230); fill-rule: nonzero; opacity: 1;" vector-effect="non-scaling-stroke"  transform=" translate(-546.85, -517.6)" d="M 538.3123 527.56486 L 531.58869 519.9285799999999 C 530.4110146123817 518.5952464119958 530.4110146123817 516.5934735880039 531.58869 515.2601399999999 L 538.32545 507.63040999999987 C 538.990396899439 506.8756939373382 539.9460167459075 506.4408929289162 540.95186 506.4354099999999 L 559.46808 506.4354099999999 C 561.4154062211924 506.4318002141083 562.996962793161 508.00747384853474 563.0006099999999 509.95479999999986 L 563.0006099999999 525.234 C 563.0042142558967 527.181322318976 561.4285422389997 528.762872790259 559.4812199999999 528.76652 L 540.95843 528.76652 C 539.9446503212598 528.7650060744301 538.9805736101844 528.3271997608208 538.3123 527.56486 Z" stroke-linecap="round" />
</g>
<g transform="matrix(1 0 0 1 543.05 669.92)"  >
<circle style="stroke: none; stroke-width: 1; stroke-dasharray: none; stroke-linecap: butt; stroke-dashoffset: 0; stroke-linejoin: miter; stroke-miterlimit: 4; fill: rgb(83,84,97); fill-rule: nonzero; opacity: 1;" vector-effect="non-scaling-stroke"  cx="0" cy="0" r="41.366" />
</g>
<g transform="matrix(1 0 0 1 686.19 669.92)"  >
<circle style="stroke: none; stroke-width: 1; stroke-dasharray: none; stroke-linecap: butt; stroke-dashoffset: 0; stroke-linejoin: miter; stroke-miterlimit: 4; fill: rgb(83,84,97); fill-rule: nonzero; opacity: 1;" vector-effect="non-scaling-stroke"  cx="0" cy="0" r="41.366" />
</g>
<g transform="matrix(1 0 0 1 543.05 669.92)"  >
<circle style="stroke: none; stroke-width: 1; stroke-dasharray: none; stroke-linecap: butt; stroke-dashoffset: 0; stroke-linejoin: miter; stroke-miterlimit: 4; fill: rgb(230,230,230); fill-rule: nonzero; opacity: 1;" vector-effect="non-scaling-stroke"  cx="0" cy="0" r="27.57734" />
</g>
<g transform="matrix(1 0 0 1 543.05 669.92)"  >
<path style="stroke: none; stroke-width: 1; stroke-dasharray: none; stroke-linecap: butt; stroke-dashoffset: 0; stroke-linejoin: miter; stroke-miterlimit: 4; fill: rgb(83,84,97); fill-rule: nonzero; opacity: 1;" vector-effect="non-scaling-stroke"  transform=" translate(-603.05, -579.97)" d="M 603.05352 599.01632 C 595.3519494354117 599.0163280892467 588.4087207944273 594.3770196039371 585.4614526652359 587.2616981258835 C 582.5141845360446 580.1463766478299 584.1432913484845 571.9562839635855 589.5891226905028 566.5104497615839 C 595.0349540325211 561.0646155595824 603.2250458612078 559.4355044459589 610.3403688870746 562.3827688384027 C 617.4556919129415 565.3300332308465 622.0950040446197 572.2732594354085 622.095 579.97483 C 622.0830360128305 590.4861910034771 613.5648809971926 599.0043504925882 603.05352 599.01632 Z M 603.05352 562.24654 C 593.2624557924223 562.24654 585.32523 570.1837657924223 585.32523 579.97483 C 585.32523 589.7658942075777 593.2624557924223 597.70312 603.05352 597.70312 C 612.8445842075778 597.70312 620.7818100000001 589.7658942075777 620.7818100000001 579.97483 C 620.7706726223281 570.1883827576626 612.8399672423375 562.2576773776719 603.05352 562.24654 Z" stroke-linecap="round" />
</g>
<g transform="matrix(1 0 0 1 686.19 669.92)"  >
<circle style="stroke: none; stroke-width: 1; stroke-dasharray: none; stroke-linecap: butt; stroke-dashoffset: 0; stroke-linejoin: miter; stroke-miterlimit: 4; fill: rgb(230,230,230); fill-rule: nonzero; opacity: 1;" vector-effect="non-scaling-stroke"  cx="0" cy="0" r="27.57734" />
</g>
<g transform="matrix(1 0 0 1 686.19 669.92)"  >
<path style="stroke: none; stroke-width: 1; stroke-dasharray: none; stroke-linecap: butt; stroke-dashoffset: 0; stroke-linejoin: miter; stroke-miterlimit: 4; fill: rgb(83,84,97); fill-rule: nonzero; opacity: 1;" vector-effect="non-scaling-stroke"  transform=" translate(-746.19, -579.97)" d="M 746.193 599.01632 C 738.4914303454239 599.0163240446224 731.5482047734904 594.3770129949473 728.6009397951061 587.2616911967787 C 725.653674816722 580.14636939861 727.2827840975068 571.956278354571 732.7286162260389 566.510446226039 C 738.174448354571 561.0646140975068 746.36453939861 559.435504816722 753.4798611967786 562.3827697951062 C 760.5951829949473 565.3300347734904 765.2344940446222 572.2732603454239 765.2344899999999 579.97483 C 765.2224105291368 590.4861469945804 756.7043169945804 599.0042405291368 746.193 599.01632 Z M 746.193 562.24654 C 736.4019357924223 562.24654 728.46471 570.1837657924223 728.46471 579.97483 C 728.46471 589.7658942075777 736.4019357924223 597.70312 746.193 597.70312 C 755.9840642075777 597.70312 763.92129 589.7658942075777 763.92129 579.97483 C 763.910152622328 570.1883827576626 755.9794472423374 562.2576773776719 746.193 562.24654 Z" stroke-linecap="round" />
</g>
<g transform="matrix(1 0 0 1 615.94 674.52)"  >
<circle style="stroke: none; stroke-width: 1; stroke-dasharray: none; stroke-linecap: butt; stroke-dashoffset: 0; stroke-linejoin: miter; stroke-miterlimit: 4; fill: rgb(83,84,97); fill-rule: nonzero; opacity: 1;" vector-effect="non-scaling-stroke"  cx="0" cy="0" r="11.81886" />
</g>
<g transform="matrix(1 0 0 1 597.87 635.07)"  >
<circle style="stroke: none; stroke-width: 1; stroke-dasharray: none; stroke-linecap: butt; stroke-dashoffset: 0; stroke-linejoin: miter; stroke-miterlimit: 4; fill: rgb(83,84,97); fill-rule: nonzero; opacity: 1;" vector-effect="non-scaling-stroke"  cx="0" cy="0" r="2.58045" />
</g>
<g transform="matrix(1 0 0 1 607.54 635.07)"  >
<circle style="stroke: none; stroke-width: 1; stroke-dasharray: none; stroke-linecap: butt; stroke-dashoffset: 0; stroke-linejoin: miter; stroke-miterlimit: 4; fill: rgb(83,84,97); fill-rule: nonzero; opacity: 1;" vector-effect="non-scaling-stroke"  cx="0" cy="0" r="2.58045" />
</g>
<g transform="matrix(1 0 0 1 606.25 647.32)"  >
<circle style="stroke: none; stroke-width: 1; stroke-dasharray: none; stroke-linecap: butt; stroke-dashoffset: 0; stroke-linejoin: miter; stroke-miterlimit: 4; fill: rgb(83,84,97); fill-rule: nonzero; opacity: 1;" vector-effect="non-scaling-stroke"  cx="0" cy="0" r="2.58045" />
</g>
<g transform="matrix(1 0 0 1 615.28 647.6)"  >
<circle style="stroke: none; stroke-width: 1; stroke-dasharray: none; stroke-linecap: butt; stroke-dashoffset: 0; stroke-linejoin: miter; stroke-miterlimit: 4; fill: rgb(83,84,97); fill-rule: nonzero; opacity: 1;" vector-effect="non-scaling-stroke"  cx="0" cy="0" r="2.62641" />
</g>
<g transform="matrix(1 0 0 1 624.29 647.32)"  >
<circle style="stroke: none; stroke-width: 1; stroke-dasharray: none; stroke-linecap: butt; stroke-dashoffset: 0; stroke-linejoin: miter; stroke-miterlimit: 4; fill: rgb(83,84,97); fill-rule: nonzero; opacity: 1;" vector-effect="non-scaling-stroke"  cx="0" cy="0" r="2.58045" />
</g>
<g transform="matrix(1 0 0 1 602.38 641.52)"  >
<circle style="stroke: none; stroke-width: 1; stroke-dasharray: none; stroke-linecap: butt; stroke-dashoffset: 0; stroke-linejoin: miter; stroke-miterlimit: 4; fill: rgb(83,84,97); fill-rule: nonzero; opacity: 1;" vector-effect="non-scaling-stroke"  cx="0" cy="0" r="2.58045" />
</g>
<g transform="matrix(1 0 0 1 610.68 641.69)"  >
<circle style="stroke: none; stroke-width: 1; stroke-dasharray: none; stroke-linecap: butt; stroke-dashoffset: 0; stroke-linejoin: miter; stroke-miterlimit: 4; fill: rgb(83,84,97); fill-rule: nonzero; opacity: 1;" vector-effect="non-scaling-stroke"  cx="0" cy="0" r="2.62641" />
</g>
<g transform="matrix(1 0 0 1 619.22 641.69)"  >
<circle style="stroke: none; stroke-width: 1; stroke-dasharray: none; stroke-linecap: butt; stroke-dashoffset: 0; stroke-linejoin: miter; stroke-miterlimit: 4; fill: rgb(83,84,97); fill-rule: nonzero; opacity: 1;" vector-effect="non-scaling-stroke"  cx="0" cy="0" r="2.62641" />
</g>
<g transform="matrix(1 0 0 1 628.16 641.52)"  >
<circle style="stroke: none; stroke-width: 1; stroke-dasharray: none; stroke-linecap: butt; stroke-dashoffset: 0; stroke-linejoin: miter; stroke-miterlimit: 4; fill: rgb(83,84,97); fill-rule: nonzero; opacity: 1;" vector-effect="non-scaling-stroke"  cx="0" cy="0" r="2.58045" />
</g>
<g transform="matrix(1 0 0 1 615.28 635.12)"  >
<circle style="stroke: none; stroke-width: 1; stroke-dasharray: none; stroke-linecap: butt; stroke-dashoffset: 0; stroke-linejoin: miter; stroke-miterlimit: 4; fill: rgb(83,84,97); fill-rule: nonzero; opacity: 1;" vector-effect="non-scaling-stroke"  cx="0" cy="0" r="2.62641" />
</g>
<g transform="matrix(1 0 0 1 624.47 635.12)"  >
<circle style="stroke: none; stroke-width: 1; stroke-dasharray: none; stroke-linecap: butt; stroke-dashoffset: 0; stroke-linejoin: miter; stroke-miterlimit: 4; fill: rgb(83,84,97); fill-rule: nonzero; opacity: 1;" vector-effect="non-scaling-stroke"  cx="0" cy="0" r="2.62641" />
</g>
<g transform="matrix(1 0 0 1 632.03 635.07)"  >
<circle style="stroke: none; stroke-width: 1; stroke-dasharray: none; stroke-linecap: butt; stroke-dashoffset: 0; stroke-linejoin: miter; stroke-miterlimit: 4; fill: rgb(83,84,97); fill-rule: nonzero; opacity: 1;" vector-effect="non-scaling-stroke"  cx="0" cy="0" r="2.58045" />
</g>
<g transform="matrix(1 0 0 1 519.42 560.27)"  >
<path style="stroke: none; stroke-width: 1; stroke-dasharray: none; stroke-linecap: butt; stroke-dashoffset: 0; stroke-linejoin: miter; stroke-miterlimit: 4; fill: rgb(83,84,97); fill-rule: nonzero; opacity: 1;" vector-effect="non-scaling-stroke"  transform=" translate(-579.42, -470.32)" d="M 577.77393 458.84668 C 575.2450334824563 458.84945215693625 573.1956476772727 460.8988334885137 573.19287 463.42773 L 573.19287 477.2168 C 573.1956476772727 479.7456965114863 575.2450334824563 481.7950778430637 577.77393 481.79785 L 581.0571299999999 481.79785 C 583.5860248938849 481.79507783275136 585.6354078327513 479.74569489388495 585.6381799999999 477.2168 L 585.6381799999999 463.42773 C 585.6354078327513 460.89883510611503 583.5860248938849 458.8494521672486 581.0571299999999 458.84668 Z" stroke-linecap="round" />
</g>
<g transform="matrix(1 0 0 1 711.14 560.27)"  >
<path style="stroke: none; stroke-width: 1; stroke-dasharray: none; stroke-linecap: butt; stroke-dashoffset: 0; stroke-linejoin: miter; stroke-miterlimit: 4; fill: rgb(83,84,97); fill-rule: nonzero; opacity: 1;" vector-effect="non-scaling-stroke"  transform=" translate(-771.14, -470.32)" d="M 769.502 458.84668 C 766.9730366530646 458.8492871552147 764.9235571552147 460.8987666530646 764.92095 463.42773 L 764.92095 477.2168 C 764.9235571552147 479.74576334693535 766.9730366530646 481.79524284478526 769.502 481.79785 L 772.78521 481.79785 C 775.3141733469354 481.79524284478526 777.3636528447853 479.74576334693535 777.36626 477.2168 L 777.36626 463.42773 C 777.3636528447853 460.8987666530646 775.3141733469354 458.8492871552147 772.78521 458.84668 Z" stroke-linecap="round" />
</g>
<g transform="matrix(1 0 0 1 764.33 572.75)"  >
<circle style="stroke: none; stroke-width: 1; stroke-dasharray: none; stroke-linecap: butt; stroke-dashoffset: 0; stroke-linejoin: miter; stroke-miterlimit: 4; fill: rgb(230,230,230); fill-rule: nonzero; opacity: 1;" vector-effect="non-scaling-stroke"  cx="0" cy="0" r="15.75848" />
</g>
<g transform="matrix(1 0 0 1 730.84 606.23)"  >
<circle style="stroke: none; stroke-width: 1; stroke-dasharray: none; stroke-linecap: butt; stroke-dashoffset: 0; stroke-linejoin: miter; stroke-miterlimit: 4; fill: rgb(230,230,230); fill-rule: nonzero; opacity: 1;" vector-effect="non-scaling-stroke"  cx="0" cy="0" r="15.75848" />
</g>
<g transform="matrix(1 0 0 1 799.13 604.26)"  >
<circle style="stroke: none; stroke-width: 1; stroke-dasharray: none; stroke-linecap: butt; stroke-dashoffset: 0; stroke-linejoin: miter; stroke-miterlimit: 4; fill: rgb(230,230,230); fill-rule: nonzero; opacity: 1;" vector-effect="non-scaling-stroke"  cx="0" cy="0" r="15.75848" />
</g>
<g transform="matrix(1 0 0 1 766.95 639.06)"  >
<circle style="stroke: none; stroke-width: 1; stroke-dasharray: none; stroke-linecap: butt; stroke-dashoffset: 0; stroke-linejoin: miter; stroke-miterlimit: 4; fill: rgb(230,230,230); fill-rule: nonzero; opacity: 1;" vector-effect="non-scaling-stroke"  cx="0" cy="0" r="15.75848" />
</g>
<g transform="matrix(1 0 0 1 614.95 582.27)"  >
<path style="stroke: none; stroke-width: 1; stroke-dasharray: none; stroke-linecap: butt; stroke-dashoffset: 0; stroke-linejoin: miter; stroke-miterlimit: 4; fill: rgb(83,84,97); fill-rule: nonzero; opacity: 1;" vector-effect="non-scaling-stroke"  transform=" translate(-674.95, -492.32)" d="M 607.48535 449.6543 C 600.1537723297865 449.6626323921368 594.2124323921369 455.60397232978653 594.2041 462.93555 L 594.2041 521.7011699999999 C 594.2124378909936 529.0327453888494 600.1537746111505 534.9740821090064 607.48535 534.9824199999999 L 742.417 534.9824199999999 C 749.7485753888495 534.9740821090064 755.6899121090065 529.0327453888494 755.69825 521.7011699999999 L 755.69825 462.93555 C 755.6899176078632 455.60397232978653 749.7485776702135 449.6626323921368 742.417 449.6543 Z" stroke-linecap="round" />
</g>
<g transform="matrix(1 0 0 1 764.35 571.13)"  >
<path style="stroke: none; stroke-width: 1; stroke-dasharray: none; stroke-linecap: butt; stroke-dashoffset: 0; stroke-linejoin: miter; stroke-miterlimit: 4; fill: rgb(83,84,97); fill-rule: nonzero; opacity: 1;" vector-effect="non-scaling-stroke"  transform=" translate(-824.35, -481.18)" d="M 835.03451 490.02019 L 813.66477 490.02019 L 823.98127 472.33519 Z M 815.95134 488.707 L 832.66459 488.707 L 824.01974 474.875 Z" stroke-linecap="round" />
</g>
<g transform="matrix(1 0 0 1 730.84 606.23)"  >
<path style="stroke: none; stroke-width: 1; stroke-dasharray: none; stroke-linecap: butt; stroke-dashoffset: 0; stroke-linejoin: miter; stroke-miterlimit: 4; fill: rgb(83,84,97); fill-rule: nonzero; opacity: 1;" vector-effect="non-scaling-stroke"  transform=" translate(-790.84, -516.28)" d="M 799.70618 524.16355 L 781.9779 524.16355 L 781.9779 508.40508 L 799.70618 508.40508 Z M 783.2911 522.8503499999999 L 798.393 522.8503499999999 L 798.393 509.71828 L 783.2911 509.71828 Z" stroke-linecap="round" />
</g>
<g transform="matrix(1 0 0 1 799.13 604.26)"  >
<path style="stroke: none; stroke-width: 1; stroke-dasharray: none; stroke-linecap: butt; stroke-dashoffset: 0; stroke-linejoin: miter; stroke-miterlimit: 4; fill: rgb(83,84,97); fill-rule: nonzero; opacity: 1;" vector-effect="non-scaling-stroke"  transform=" translate(-859.13, -514.31)" d="M 859.12878 524.16355 C 853.6893340076701 524.1635499999298 849.2797892048292 519.7540126589041 849.279780000141 514.314566666582 C 849.279770795453 508.8751206742599 853.6893006745372 504.4655684095027 859.1287466668359 504.4655500000564 C 864.5681926591346 504.4655315906101 868.9777523857956 508.8750540077402 868.97778 514.3145 C 868.9717453738334 519.7514590123141 864.5657389816083 524.1574877723247 859.12878 524.16355 Z M 859.12878 505.77866 C 855.6763491276117 505.7786559553778 852.563864770458 507.85834755793985 851.2426748058368 511.04797700444624 C 849.9214848412155 514.2376064509525 850.6517753003694 517.9090301367402 853.0930125818147 520.3502674181854 C 855.5342498632599 522.7915046996305 859.2056735490476 523.5217951587845 862.3953029955538 522.2006051941632 C 865.5849324420602 520.8794152295419 867.6646240446222 517.7669308723882 867.66462 514.3145 C 867.659285460702 509.6024971484069 863.8407828515931 505.783994539298 859.12878 505.77866 Z" stroke-linecap="round" />
</g>
<g transform="matrix(0.71 -0.71 0.71 0.71 766.79 639.06)"  >
<rect style="stroke: none; stroke-width: 1; stroke-dasharray: none; stroke-linecap: butt; stroke-dashoffset: 0; stroke-linejoin: miter; stroke-miterlimit: 4; fill: rgb(83,84,97); fill-rule: nonzero; opacity: 1;" vector-effect="non-scaling-stroke"  x="-0.656535" y="-10.446495" rx="0" ry="0" width="1.31307" height="20.89299" />
</g>
<g transform="matrix(0.72 -0.69 0.69 0.72 766.95 638.9)"  >
<rect style="stroke: none; stroke-width: 1; stroke-dasharray: none; stroke-linecap: butt; stroke-dashoffset: 0; stroke-linejoin: miter; stroke-miterlimit: 4; fill: rgb(83,84,97); fill-rule: nonzero; opacity: 1;" vector-effect="non-scaling-stroke"  x="-10.44907" y="-0.656695" rx="0" ry="0" width="20.89814" height="1.31339" />
</g>
<g transform="matrix(1 0 0 1 193.35 368.37)"  >
<path style="stroke: none; stroke-width: 1; stroke-dasharray: none; stroke-linecap: butt; stroke-dashoffset: 0; stroke-linejoin: miter; stroke-miterlimit: 4; fill: rgb(47,46,65); fill-rule: nonzero; opacity: 1;" vector-effect="non-scaling-stroke"  transform=" translate(-253.35, -278.42)" d="M 297.93532 299.615 C 262.08479 309.49871 222.827 316.939 208.76024 305.39631 C 216.46188 292.57474 220.90402 279.93731 221.28085000000002 267.52953 C 221.3657625993336 261.85235793454433 223.66512598224918 256.4329587334148 227.68866000000003 252.42688 C 233.08621144345696 247.21246853123006 240.58518997729868 244.775684619074 248.01691000000002 245.82124000000002 L 257.32101 247.12687000000003 Q 257.79081 247.19280000000003 258.25567 247.27654 C 267.4120687369956 249.01121044246494 274.44714157038464 256.38432411460855 275.75049 265.612 C 277.71072 279.06638 284.3025 290.714 297.93532 299.615 Z" stroke-linecap="round" />
</g>
<g transform="matrix(1 0 0 1 257.95 482.2)"  >
<path style="stroke: none; stroke-width: 1; stroke-dasharray: none; stroke-linecap: butt; stroke-dashoffset: 0; stroke-linejoin: miter; stroke-miterlimit: 4; fill: rgb(160,97,106); fill-rule: nonzero; opacity: 1;" vector-effect="non-scaling-stroke"  transform=" translate(-317.95, -392.25)" d="M 332.51747 427.25931 L 346.45478 430.13316000000003 C 348.61057522652976 430.57767454322993 350.4519155866451 431.96865639300034 351.46879310516925 433.9208362899851 C 352.48567062369335 435.8730161869699 352.57013074433263 438.1791452631931 351.69878000000006 440.20048 L 351.69878000000006 440.20048 C 350.85745509204696 442.15216373312546 349.2094594655398 443.64186114364344 347.18301054809353 444.28248722793114 C 345.15656163064733 444.9231133122189 342.9517328796478 444.6514183754672 341.14143000000007 443.538 L 319.82216000000005 430.42569000000003 L 283.61079 345.2996 L 302.36639 339.87439 Z" stroke-linecap="round" />
</g>
<g transform="matrix(1 0 0 1 163.96 621.61)"  >
<polygon style="stroke: none; stroke-width: 1; stroke-dasharray: none; stroke-linecap: butt; stroke-dashoffset: 0; stroke-linejoin: miter; stroke-miterlimit: 4; fill: rgb(160,97,106); fill-rule: nonzero; opacity: 1;" vector-effect="non-scaling-stroke"  points="9.27,7.3 -1.28,10.37 -9.27,-6.13 -1.15,-10.37 9.27,7.3 " />
</g>
<g transform="matrix(1 0 0 1 161.51 686.75)"  >
<polygon style="stroke: none; stroke-width: 1; stroke-dasharray: none; stroke-linecap: butt; stroke-dashoffset: 0; stroke-linejoin: miter; stroke-miterlimit: 4; fill: rgb(160,97,106); fill-rule: nonzero; opacity: 1;" vector-effect="non-scaling-stroke"  points="6.36,12.84 -6.59,9.41 -4.56,-12.84 6.59,-12.15 6.36,12.84 " />
</g>
<g transform="matrix(1 0 0 1 140.56 564.11)"  >
<path style="stroke: none; stroke-width: 1; stroke-dasharray: none; stroke-linecap: butt; stroke-dashoffset: 0; stroke-linejoin: miter; stroke-miterlimit: 4; fill: rgb(47,46,65); fill-rule: nonzero; opacity: 1;" vector-effect="non-scaling-stroke"  transform=" translate(-200.56, -474.16)" d="M 229.22115 523.53935 L 215.50743 532.56435 L 162.763 472.90386 C 160.4467083332745 470.283845313727 159.41716140099945 466.768584748552 159.95401892878678 463.3129418219048 C 160.4908764565741 459.85729889525766 162.53839523600928 456.82008132407645 165.5404 455.0263 L 231.24689 415.76491 L 241.31069000000002 444.67473 L 207.09707000000003 476.78152 Z" stroke-linecap="round" />
</g>
<g transform="matrix(1 0 0 1 169.59 641.14)"  >
<path style="stroke: none; stroke-width: 1; stroke-dasharray: none; stroke-linecap: butt; stroke-dashoffset: 0; stroke-linejoin: miter; stroke-miterlimit: 4; fill: rgb(47,46,65); fill-rule: nonzero; opacity: 1;" vector-effect="non-scaling-stroke"  transform=" translate(-229.59, -551.2)" d="M 240.77016 554.769 Q 240.71863 554.836 240.66674 554.90284 C 239.7903 560.03468 238.25095000000002 564.71548 234.81325 568.1045799999999 C 232.70318847650182 572.8634470431526 227.3556325201708 575.2785682638038 222.39025 573.7151899999999 L 222.39025 573.7151899999999 C 217.7255744988639 572.2464376441744 214.75304891267666 567.6813155273177 215.29675 562.8211899999999 L 217.85933 539.9158899999999 C 224.00647 538.5027799999999 228.6948 535.0070499999998 231.0678 528.2057599999998 L 237.042 532.275 C 240.6149873808068 534.6891521353588 243.03818244290335 538.4662003247893 243.74325537585096 542.7202855984159 C 244.44832830879858 546.9743708720425 243.3732476515435 551.331223969709 240.77016 554.769 Z" stroke-linecap="round" />
</g>
<g transform="matrix(1 0 0 1 187.27 363.55)"  >
<circle style="stroke: none; stroke-width: 1; stroke-dasharray: none; stroke-linecap: butt; stroke-dashoffset: 0; stroke-linejoin: miter; stroke-miterlimit: 4; fill: rgb(160,97,106); fill-rule: nonzero; opacity: 1;" vector-effect="non-scaling-stroke"  cx="0" cy="0" r="21.10755" />
</g>
<g transform="matrix(1 0 0 1 187.62 400.54)"  >
<path style="stroke: none; stroke-width: 1; stroke-dasharray: none; stroke-linecap: butt; stroke-dashoffset: 0; stroke-linejoin: miter; stroke-miterlimit: 4; fill: rgb(160,97,106); fill-rule: nonzero; opacity: 1;" vector-effect="non-scaling-stroke"  transform=" translate(-247.62, -310.59)" d="M 265.55054 307.34479 L 232.27465 334.90379 L 229.683 323.55971 L 235.49112 314.70618 C 237.10297 306.01974 236.06232 296.44088 233.29259 286.28029000000004 L 255.00277 286.30024000000003 C 255.94 294.51108 259.13665 301.674 265.55054 307.34479 Z" stroke-linecap="round" />
</g>
<g transform="matrix(1 0 0 1 192.96 438.87)"  >
<path style="stroke: none; stroke-width: 1; stroke-dasharray: none; stroke-linecap: butt; stroke-dashoffset: 0; stroke-linejoin: miter; stroke-miterlimit: 4; fill: rgb(190,90,56); fill-rule: nonzero; opacity: 1;" vector-effect="non-scaling-stroke"  transform=" translate(-252.96, -348.92)" d="M 274.919 379.63463 L 229.99631999999997 393.31863000000004 L 226.50139999999996 377.34117000000003 C 218.08269999999996 366.03751000000005 214.42310999999995 355.72017000000005 219.93084999999996 347.30274000000003 L 217.15920999999997 334.63174000000004 C 225.10998999999998 328.3718 231.36220999999998 321.96687000000003 234.79538999999997 315.32131000000004 L 262.43465999999995 304.52141000000006 L 282.75329999999997 305.77159000000006 L 288.75329999999997 325.8783900000001 Z" stroke-linecap="round" />
</g>
<g transform="matrix(1 0 0 1 233.42 418)"  >
<path style="stroke: none; stroke-width: 1; stroke-dasharray: none; stroke-linecap: butt; stroke-dashoffset: 0; stroke-linejoin: miter; stroke-miterlimit: 4; fill: rgb(190,90,56); fill-rule: nonzero; opacity: 1;" vector-effect="non-scaling-stroke"  transform=" translate(-293.42, -328.06)" d="M 306.83348 342.123 C 297.25769681622455 342.0215174420959 287.88621426268185 344.89295712120935 280.01096 350.34147 L 282.75329 305.77156 L 282.75329 305.77156 C 288.4164250922854 306.52783457447407 293.26053238013156 310.2155398697097 295.49699 315.47304 Z" stroke-linecap="round" />
</g>
<g transform="matrix(1 0 0 1 194.38 573.14)"  >
<path style="stroke: none; stroke-width: 1; stroke-dasharray: none; stroke-linecap: butt; stroke-dashoffset: 0; stroke-linejoin: miter; stroke-miterlimit: 4; fill: rgb(47,46,65); fill-rule: nonzero; opacity: 1;" vector-effect="non-scaling-stroke"  transform=" translate(-254.38, -483.19)" d="M 229.08063 589.98075 L 214.82227 586.4717499999999 L 216.92097 465.3187499999999 L 236.06719 444.35203999999993 L 231.78136 417.7714899999999 L 229.00806 387.9943999999999 L 275.77606000000003 376.39769999999993 C 291.58379 405.10049999999995 301.13837 431.19690999999995 287.19149000000004 447.4976499999999 Z" stroke-linecap="round" />
</g>
<g transform="matrix(1 0 0 1 154.71 710.14)"  >
<path style="stroke: none; stroke-width: 1; stroke-dasharray: none; stroke-linecap: butt; stroke-dashoffset: 0; stroke-linejoin: miter; stroke-miterlimit: 4; fill: rgb(47,46,65); fill-rule: nonzero; opacity: 1;" vector-effect="non-scaling-stroke"  transform=" translate(-214.71, -620.19)" d="M 225.80573 630.88621 Q 225.70981 630.92382 225.61364 630.96096 C 221.47343 635.7684 216.9245 639.6883 211.20526 641.06648 C 206.01137546426372 644.7092533148248 198.91007396350744 643.8702322731408 194.70814000000001 639.1173399999999 L 194.70814000000001 639.1173399999999 C 190.7606789361552 634.6522640286237 190.52598124187784 628.0176153713401 194.14807000000002 623.2847699999999 L 211.21857000000003 600.9793999999998 C 218.52498000000003 603.3671299999999 225.61704000000003 602.6635699999998 232.36901000000003 597.0535399999999 L 236.04953000000003 605.0568599999999 C 238.26296739806426 609.8229746406697 238.41936868237568 615.2895226038701 236.48205187147192 620.1743928639022 C 234.54473506056817 625.0592631239343 230.68414311700275 628.9326902680772 225.80573 630.88621 Z" stroke-linecap="round" />
</g>
<g transform="matrix(1 0 0 1 131.28 506.87)"  >
<path style="stroke: none; stroke-width: 1; stroke-dasharray: none; stroke-linecap: butt; stroke-dashoffset: 0; stroke-linejoin: miter; stroke-miterlimit: 4; fill: rgb(160,97,106); fill-rule: nonzero; opacity: 1;" vector-effect="non-scaling-stroke"  transform=" translate(-191.28, -416.92)" d="M 173.71974 441.8318 L 161.20466 452.54706 C 159.09392435653803 454.3542502100449 158.0536489199026 457.11513225616045 158.4470086241047 459.8658429924926 C 158.84036832830682 462.6165537288248 160.61275376569984 464.97521701932374 163.1454 466.11839 L 163.1454 466.11839 C 167.03789645963556 467.87535995805194 171.62613511614092 466.31745856742344 173.64409 462.55364 L 182.69424 445.67364 L 224.19794000000002 369.93463999999994 L 208.58837000000003 367.00043999999997 Z" stroke-linecap="round" />
</g>
<g transform="matrix(1 0 0 1 157.01 443.29)"  >
<path style="stroke: none; stroke-width: 1; stroke-dasharray: none; stroke-linecap: butt; stroke-dashoffset: 0; stroke-linejoin: miter; stroke-miterlimit: 4; fill: rgb(190,90,56); fill-rule: nonzero; opacity: 1;" vector-effect="non-scaling-stroke"  transform=" translate(-217.01, -353.35)" d="M 226.69874 372.06226 C 218.5922 369.61509 210.99874 368.17408 205.10954999999998 370.07599 C 206.34405999999998 354.79967999999997 208.88835999999998 341.1531 217.1592 334.63172 L 228.91679 336.01306999999997 Z" stroke-linecap="round" />
</g>
<g transform="matrix(1 0 0 1 188.54 346.94)"  >
<path style="stroke: none; stroke-width: 1; stroke-dasharray: none; stroke-linecap: butt; stroke-dashoffset: 0; stroke-linejoin: miter; stroke-miterlimit: 4; fill: rgb(47,46,65); fill-rule: nonzero; opacity: 1;" vector-effect="non-scaling-stroke"  transform=" translate(-248.54, -256.99)" d="M 270.83475 268.70791 L 225.68964999999997 265.93019000000004 L 226.24518999999998 256.90119000000004 Q 249.88391 240.96192000000005 271.39029 259.67891000000003 Z" stroke-linecap="round" />
</g>
</svg>